<?xml version="1.0" encoding="UTF-8" standalone="no"?>
<!-- Created with Inkscape (http://www.inkscape.org/) -->

<svg
   version="1.1"
   id="svg48"
   width="48"
   height="48"
   viewBox="0 0 48 48"
   xmlns="http://www.w3.org/2000/svg"
   xmlns:svg="http://www.w3.org/2000/svg">
  <defs
     id="defs52" />
  <g
     id="g54"
     transform="translate(-0.34029394,-0.11550232)">
    <g
       id="g4068"
       transform="matrix(0.012,0,0,0.012,0.34029395,0.11550233)">
      <circle
         style="fill:#2b7cef;fill-opacity:1;stroke:#000000;stroke-width:0"
         id="path1151"
         cx="2000"
         cy="2000"
         r="2000" />
      <g
         id="g528"
         transform="translate(0.06792983)">
        <path
           style="fill:#ebefd1"
           d="m 3496.269,2737.307 c 0.973,-0.2535 2.323,-0.2369 3,0.037 0.6771,0.2739 -0.119,0.4813 -1.769,0.461 -1.65,-0.02 -2.2039,-0.2445 -1.231,-0.4981 z M 858.27236,2625 c 0,-2.475 0.19502,-3.4875 0.43337,-2.25 0.23836,1.2375 0.23836,3.2625 0,4.5 -0.23835,1.2375 -0.43337,0.225 -0.43337,-2.25 z M 572.75,2402.2943 c 1.2375,-0.2384 3.2625,-0.2384 4.5,0 1.2375,0.2383 0.225,0.4333 -2.25,0.4333 -2.475,0 -3.4875,-0.195 -2.25,-0.4333 z M 1462.286,2169.5 c 0.01,-2.75 0.2017,-3.7563 0.4316,-2.2363 0.2298,1.5201 0.2237,3.7701 -0.014,5 -0.2373,1.23 -0.4254,-0.014 -0.4179,-2.7637 z m 526.964,-24.1893 c 0.9625,-0.2516 2.5375,-0.2516 3.5,0 0.9625,0.2515 0.175,0.4573 -1.75,0.4573 -1.925,0 -2.7125,-0.2058 -1.75,-0.4573 z M 3035.2522,2124.5 c 0.011,-2.2 0.2159,-2.9823 0.4551,-1.7383 0.2392,1.2439 0.2301,3.0439 -0.02,4 -0.2503,0.956 -0.446,-0.062 -0.4349,-2.2617 z M 94.603333,1941.25 C 115.16621,1885.0502 135.21518,1828.0447 174.17605,1715 253.74592,1484.1286 287.74609,1401.849 340.7068,1312 466.0981,1099.2708 662.76819,952.80589 770.31936,992.05721 884.01708,1033.5517 835.52587,1269.6268 671.12008,1475 595.10013,1569.963 515.95894,1639.1998 318.5,1783.4905 199.56899,1870.3978 163.32845,1897.1382 118.3232,1931.1926 103.92597,1942.0867 91.896547,1951 91.591163,1951 c -0.305385,0 1.050092,-4.3875 3.01217,-9.75 z"
           id="path542" />
        <path
           style="fill:#dff538"
           d="m 667,3282.7663 c 0,-7.2817 8.31961,-64.3142 13.60523,-93.2663 82.36365,-451.1491 406.96867,-827.6751 841.75647,-976.3968 9.8135,-3.3568 18.2468,-6.1032 18.7405,-6.1032 0.509,0 0.8978,12.1431 0.8978,28.0422 0,37.6306 2.4616,48.2573 15.3581,66.3013 35.157,49.1894 111.1543,42.6712 138.0879,-11.8435 8.079,-16.3521 7.8696,-14.5183 8.2923,-72.6031 l 0.3755,-51.6031 19.1931,-3.1519 c 34.9122,-5.7332 84.9929,-12.1407 94.8993,-12.1416 l 3.7062,-3e-4 0.2938,60.25 0.2938,60.25 3.1237,8.7293 c 23.0884,64.5205 108.0578,75.3857 145.1289,18.5579 12.4512,-19.0871 13.2474,-24.8425 13.2474,-95.7632 v -57.0929 l 4.75,0.5 c 2.6125,0.2749 10.825,0.7581 18.25,1.0737 128.9157,5.4797 286.0429,40.2586 405.25,89.6991 l 9.75,4.0438 V 2311.1238 2382 h 69.4878 69.4879 l 0.2621,-37.0331 0.2622,-37.033 12.5,7.1825 c 339.2082,194.9107 571.484,538.9931 626.5769,928.1813 3.2408,22.8937 8.0254,20.8526 -34.7782,14.8359 C 2369.3597,3146.1814 1472.5588,3153.769 696,3279.03 c -13.475,2.1735 -25.5125,4.1895 -26.75,4.48 -1.43073,0.3358 -2.25,0.065 -2.25,-0.7437 z m 2557.5,-343.4639 c -42.9109,-5.6913 -65.4172,-55.0675 -41.6768,-91.4341 12.3218,-18.8752 4.8341,-15.8652 164.1768,-65.9987 l 137.5,-43.2612 10.5,-0.4015 c 54.3526,-2.0782 82.5609,62.4736 44.0614,100.8302 -10.8969,10.8565 -8.827,10.1091 -156.2555,56.4225 -147.2903,46.2699 -144.9317,45.6167 -158.3059,43.8428 z M 786.13086,2683.459 c -11.96039,-2.5952 -17.88242,-6.6312 -134.13086,-91.414 -124.19954,-90.5818 -120.05403,-87.4009 -126.49948,-97.0652 -33.2431,-49.8446 21.62037,-113.3006 74.81777,-86.5354 6.90642,3.4748 232.27671,167.3042 239.92385,174.4088 43.05053,39.9966 3.70421,113.1508 -54.11128,100.6058 z M 2794,2403.3918 c -39.0553,-10.4851 -57.1906,-56.3432 -35.3358,-89.3527 7.0363,-10.6277 171.3488,-227.7409 175.5751,-231.9951 47.9949,-48.311 128.2336,13.9362 92.8442,72.0263 -6.5279,10.7152 -170.458,227.3035 -177.0835,233.9668 -14.2017,14.2828 -36.8558,20.4943 -56,15.3547 z M 1378,2235.9209 c -18.214,-2.0088 -36.0827,-14.1943 -44.6478,-30.4476 -7.6879,-14.5889 -117.387,-262.5174 -118.7923,-268.4801 -5.4619,-23.1746 3.745,-47.8331 22.9863,-61.5634 39.6124,-28.2668 85.9892,-23.3331 104.1108,11.0757 5.9787,11.3522 118.0678,264.0012 119.2046,268.6873 10.231,42.1752 -34.7833,86.0305 -82.8616,80.7281 z"
           id="path540" />
        <path
           style="fill:#e16336"
           d="M 2560,1048.5 V 794 h 332 332 v 254.5 254.5 h -332 -332 z"
           id="path536" />
        <path
           style="fill:#46a508"
           d="m 1957.5,3999.3927 c -502.342,-12.8141 -963.61114,-201.6213 -1328,-543.5786 -53.78837,-50.4772 -137.95708,-139.2532 -133.70897,-141.0281 6.90378,-2.8844 165.98192,-30.6026 250.70897,-43.6842 854.5616,-131.9414 1856.6742,-120.9498 2682.5,29.4229 45.4202,8.2705 75.9835,14.1182 76.4757,14.6322 0.5209,0.544 -19.7158,23.1677 -45.0314,50.3431 -386.0949,414.4593 -940.3896,648.2427 -1502.9443,633.8927 z M 2560.4537,2344.5 c -3e-4,-20.9 0.1323,-29.5921 0.2947,-19.3158 0.1624,10.2763 0.1626,27.3763 5e-4,38 -0.1621,10.6237 -0.295,2.2158 -0.2952,-18.6842 z m -934.1847,-10.193 c 0.973,-0.2535 2.323,-0.2369 3,0.037 0.6771,0.2739 -0.119,0.4813 -1.769,0.461 -1.65,-0.02 -2.2039,-0.2445 -1.231,-0.4981 z m 280,0 c 0.973,-0.2535 2.323,-0.2369 3,0.037 0.6771,0.2739 -0.119,0.4813 -1.769,0.461 -1.65,-0.02 -2.2039,-0.2445 -1.231,-0.4981 z M 1959.5,2311 c 2.1482,-2.2 4.1309,-4 4.4059,-4 0.275,0 -1.2577,1.8 -3.4059,4 -2.1482,2.2 -4.1309,4 -4.4059,4 -0.275,0 1.2577,-1.8 3.4059,-4 z"
           id="path534" />
        <path
           style="fill:#4b1e08"
           d="m 1955.7835,3999.2616 c 2.906,-0.2026 7.406,-0.2005 10,0 2.5941,0.2053 0.2165,0.3711 -5.2835,0.3685 -5.5,0 -7.6224,-0.1706 -4.7165,-0.3732 z m 79,0 c 2.906,-0.2026 7.406,-0.2005 10,0 2.5941,0.2053 0.2165,0.3711 -5.2835,0.3685 -5.5,0 -7.6224,-0.1706 -4.7165,-0.3732 z m -110.5335,-0.9509 c 0.9625,-0.2516 2.5375,-0.2516 3.5,0 0.9625,0.2515 0.175,0.4573 -1.75,0.4573 -1.925,0 -2.7125,-0.2058 -1.75,-0.4573 z m 148,0 c 0.9625,-0.2516 2.5375,-0.2516 3.5,0 0.9625,0.2515 0.175,0.4573 -1.75,0.4573 -1.925,0 -2.7125,-0.2058 -1.75,-0.4573 z m -174,-1 c 0.9625,-0.2516 2.5375,-0.2516 3.5,0 0.9625,0.2515 0.175,0.4573 -1.75,0.4573 -1.925,0 -2.7125,-0.2058 -1.75,-0.4573 z m 200,0 c 0.9625,-0.2516 2.5375,-0.2516 3.5,0 0.9625,0.2515 0.175,0.4573 -1.75,0.4573 -1.925,0 -2.7125,-0.2058 -1.75,-0.4573 z M 585.45295,3413.75 581.5,3409.5 l 4.25,3.9529 c 3.95246,3.6762 4.70953,4.5471 3.95295,4.5471 -0.16338,0 -2.07588,-1.9125 -4.25,-4.25 z M 3413.5,3414 c 2.1482,-2.2 4.1309,-4 4.4059,-4 0.275,0 -1.2577,1.8 -3.4059,4 -2.1482,2.2 -4.1309,4 -4.4059,4 -0.275,0 1.2577,-1.8 3.4059,-4 z M 2422.0018,1876.75 V 1371.5 l 4.3209,-2.7296 c 22.0582,-13.9349 37.4631,-45.3422 35.2753,-71.9188 -1.8906,-22.9655 -8.676,-36.4665 -29.7471,-59.1881 L 2421.5,1226.5 2421.7523,1010.25 2422.0045,794 H 2491.0023 2560 v 794 794 h -69 -69 v -505.25 z m -800.7328,457.557 c 0.973,-0.2535 2.323,-0.2369 3,0.037 0.6771,0.2739 -0.119,0.4813 -1.769,0.461 -1.65,-0.02 -2.2039,-0.2445 -1.231,-0.4981 z m 280,0 c 0.973,-0.2535 2.323,-0.2369 3,0.037 0.6771,0.2739 -0.119,0.4813 -1.769,0.461 -1.65,-0.02 -2.2039,-0.2445 -1.231,-0.4981 z m -55.8066,-23.557 -4.9624,-5.25 5.25,4.9624 c 4.8784,4.6112 5.7086,5.5376 4.9624,5.5376 -0.1582,0 -2.5207,-2.3625 -5.25,-5.25 z m -280.0095,0 -3.9529,-4.25 4.25,3.9529 c 2.3375,2.1742 4.25,4.0867 4.25,4.25 0,0.7566 -0.8709,-4e-4 -4.5471,-3.9529 z m 137.742,-52.25 c 0.02,-1.65 0.2445,-2.2039 0.4981,-1.231 0.2535,0.973 0.2369,2.323 -0.037,3 -0.2739,0.6771 -0.4813,-0.119 -0.461,-1.769 z m 280.2732,-56.5 c 0,-31.625 0.1266,-44.5625 0.2813,-28.75 0.1547,15.8125 0.1547,41.6875 0,57.5 -0.1547,15.8125 -0.2813,2.875 -0.2813,-28.75 z M 4.1949487,2136.5 c 0.02038,-1.65 0.2444986,-2.2039 0.498042,-1.231 0.2535434,0.973 0.2368691,2.323 -0.037054,3 -0.2739231,0.6771 -0.4813677,-0.119 -0.460988,-1.769 z m 3991.9999513,-16 c 0.02,-1.65 0.2445,-2.2039 0.4981,-1.231 0.2535,0.973 0.2369,2.323 -0.037,3 -0.2739,0.6771 -0.4813,-0.119 -0.461,-1.769 z M 1.2521834,2080.5 c 0.011099,-2.2 0.2158842,-2.9823 0.4550775,-1.7383 0.2391932,1.2439 0.2301119,3.0439 -0.020181,4 -0.2502926,0.956 -0.4459962,-0.062 -0.4348965,-2.2617 z M 3998.232,2080 c 0,-1.925 0.2058,-2.7125 0.4573,-1.75 0.2516,0.9625 0.2516,2.5375 0,3.5 -0.2515,0.9625 -0.4573,0.175 -0.4573,-1.75 z M 0.27236411,2053 c 0,-2.475 0.195016,-3.4875 0.4333689,-2.25 0.23835289,1.2375 0.23835289,3.2625 0,4.5 -0.2383529,1.2375 -0.4333689,0.225 -0.4333689,-2.25 z M 3999.2724,2053 c 0,-2.475 0.195,-3.4875 0.4333,-2.25 0.2384,1.2375 0.2384,3.2625 0,4.5 -0.2383,1.2375 -0.4333,0.225 -0.4333,-2.25 z M 0.27236411,1947 c 0,-2.475 0.195016,-3.4875 0.4333689,-2.25 0.23835289,1.2375 0.23835289,3.2625 0,4.5 -0.2383529,1.2375 -0.4333689,0.225 -0.4333689,-2.25 z M 3999.2724,1947 c 0,-2.475 0.195,-3.4875 0.4333,-2.25 0.2384,1.2375 0.2384,3.2625 0,4.5 -0.2383,1.2375 -0.4333,0.225 -0.4333,-2.25 z M 1.2521834,1919.5 c 0.011099,-2.2 0.2158842,-2.9823 0.4550775,-1.7383 0.2391932,1.2439 0.2301119,3.0439 -0.020181,4 -0.2502926,0.956 -0.4459962,-0.062 -0.4348965,-2.2617 z M 3998.232,1920 c 0,-1.925 0.2058,-2.7125 0.4573,-1.75 0.2516,0.9625 0.2516,2.5375 0,3.5 -0.2515,0.9625 -0.4573,0.175 -0.4573,-1.75 z m -2.0371,-40.5 c 0.02,-1.65 0.2445,-2.2039 0.4981,-1.231 0.2535,0.973 0.2369,2.323 -0.037,3 -0.2739,0.6771 -0.4813,-0.119 -0.461,-1.769 z M 4.1949487,1863.5 c 0.02038,-1.65 0.2444986,-2.2039 0.498042,-1.231 0.2535434,0.973 0.2368691,2.323 -0.037054,3 -0.2739231,0.6771 -0.4813677,-0.119 -0.460988,-1.769 z M 1733.3216,1741.2505 c 16.4018,-0.1543 42.9518,-0.1542 59,2e-4 16.0481,0.1544 2.6284,0.2806 -29.8216,0.2805 -32.45,-2e-4 -45.5803,-0.1265 -29.1784,-0.2807 z M 519,655.68709 c 0,-0.1721 1.4625,-1.6346 3.25,-3.25 l 3.25,-2.93709 -2.93709,3.25 C 519.82513,655.77946 519,656.45965 519,655.68709 Z M 3477.4371,652.75 3474.5,649.5 l 3.25,2.93709 c 1.7875,1.6154 3.25,3.0779 3.25,3.25 0,0.77256 -0.8251,0.0924 -3.5629,-2.93709 z M 534,639.5 c 1.86578,-1.925 3.61733,-3.5 3.89233,-3.5 0.275,0 -1.02655,1.575 -2.89233,3.5 -1.86578,1.925 -3.61733,3.5 -3.89233,3.5 -0.275,0 1.02655,-1.575 2.89233,-3.5 z m 2930.4371,-0.75 -2.9371,-3.25 3.25,2.93709 c 1.7875,1.6154 3.25,3.0779 3.25,3.25 0,0.77256 -0.8251,0.0924 -3.5629,-2.93709 z M 548,624.5 c 1.86578,-1.925 3.61733,-3.5 3.89233,-3.5 0.275,0 -1.02655,1.575 -2.89233,3.5 -1.86578,1.925 -3.61733,3.5 -3.89233,3.5 -0.275,0 1.02655,-1.575 2.89233,-3.5 z m 2902.9462,-0.25 -3.4462,-3.75 3.75,3.44617 c 2.0625,1.89539 3.75,3.58289 3.75,3.75 0,0.76362 -0.8462,0.0442 -4.0538,-3.44617 z M 585.5,586 c 8.23625,-8.25 15.19999,-15 15.47499,-15 0.275,0 -6.23874,6.75 -14.47499,15 -8.23625,8.25 -15.19999,15 -15.47499,15 -0.275,0 6.23874,-6.75 14.47499,-15 z m 2828,0 c -8.2362,-8.25 -14.75,-15 -14.475,-15 0.275,0 7.2388,6.75 15.475,15 8.2362,8.25 14.75,15 14.475,15 -0.275,0 -7.2388,-6.75 -15.475,-15 z M 624,548.5 c 1.86578,-1.925 3.61733,-3.5 3.89233,-3.5 0.275,0 -1.02655,1.575 -2.89233,3.5 -1.86578,1.925 -3.61733,3.5 -3.89233,3.5 -0.275,0 1.02655,-1.575 2.89233,-3.5 z m 2750.9462,-0.25 -3.4462,-3.75 3.75,3.44617 c 2.0625,1.89539 3.75,3.58289 3.75,3.75 0,0.76362 -0.8462,0.0442 -4.0538,-3.44617 z M 639,534.5 c 1.86578,-1.925 3.61733,-3.5 3.89233,-3.5 0.275,0 -1.02655,1.575 -2.89233,3.5 -1.86578,1.925 -3.61733,3.5 -3.89233,3.5 -0.275,0 1.02655,-1.575 2.89233,-3.5 z m 2721.4371,0.25 -2.9371,-3.25 3.25,2.93709 c 1.7875,1.6154 3.25,3.0779 3.25,3.25 0,0.77256 -0.8251,0.0924 -3.5629,-2.93709 z M 650,524.68709 c 0,-0.1721 1.4625,-1.6346 3.25,-3.25 l 3.25,-2.93709 -2.93709,3.25 C 650.82513,524.77946 650,525.45965 650,524.68709 Z M 3346.4371,521.75 3343.5,518.5 l 3.25,2.93709 c 1.7875,1.6154 3.25,3.0779 3.25,3.25 0,0.77256 -0.8251,0.0924 -3.5629,-2.93709 z M 1862.269,4.3070093 c 0.973,-0.2535434 2.323,-0.2368691 3,0.037054 0.6771,0.2739231 -0.119,0.4813677 -1.769,0.460988 -1.65,-0.02038 -2.2039,-0.2444986 -1.231,-0.498042 z m 273,0 c 0.973,-0.2535434 2.323,-0.2368691 3,0.037054 0.6771,0.2739231 -0.119,0.4813677 -1.769,0.460988 -1.65,-0.02038 -2.2039,-0.2444986 -1.231,-0.498042 z M 1917.7617,1.2927391 c 1.2439,-0.2391932 3.0439,-0.2301119 4,0.020181 0.956,0.2502926 -0.062,0.4459962 -2.2617,0.4348968 -2.2,-0.011099 -2.9823,-0.2158842 -1.7383,-0.4550778 z m 161,0 c 1.2439,-0.2391932 3.0439,-0.2301119 4,0.020181 0.956,0.2502926 -0.062,0.4459962 -2.2617,0.4348968 -2.2,-0.011099 -2.9823,-0.2158842 -1.7383,-0.4550778 z M 1944.75,0.29426699 c 1.2375,-0.23835289 3.2625,-0.23835289 4.5,0 1.2375,0.2383529 0.225,0.4333689 -2.25,0.4333689 -2.475,0 -3.4875,-0.195016 -2.25,-0.4333689 z m 106,0 c 1.2375,-0.23835289 3.2625,-0.23835289 4.5,0 1.2375,0.2383529 0.225,0.4333689 -2.25,0.4333689 -2.475,0 -3.4875,-0.195016 -2.25,-0.4333689 z"
           id="path532" />
        <path
           style="fill:#000000"
           d="m 1603.8074,2331.9636 c -28.1997,-6.9344 -50.9613,-29.1558 -59.0923,-57.6899 l -2.2151,-7.7737 -0.2558,-597.6457 -0.2557,-597.6457 -35.2443,-0.4754 c -66.4613,-0.8963 -44.5533,16.1519 -211.9267,-164.91606 -73.3246,-79.32405 -145.6376,-157.52116 -160.6954,-173.77135 -43.1326,-46.54803 -47.5642,-54.37866 -47.5642,-84.04579 0,-67.79522 76.4847,-105.0763 130.3719,-63.54743 3.0636,2.361 65.8702,69.57872 139.5702,149.37269 l 134,145.07996 290.5,0.0549 c 195.6764,0.037 292.6217,0.39381 297,1.09308 25.5943,4.0877 50.161,20.12248 64.2662,41.94676 4.2121,6.51724 39.3746,45.12282 150.7394,165.50004 161.6671,174.7502 154.6567,166.9515 160.0578,178.054 34.0401,69.9717 -39.4448,143.1416 -108.8046,108.3383 -13.4511,-6.7495 -16.1216,-9.5014 -154.1944,-158.8923 l -132.6282,-143.5 -36.6325,-0.2622 -36.6325,-0.2623 -0.4315,596.7623 -0.4315,596.7622 -2.1929,8.4757 c -20.8135,80.446 -131.5025,81.5521 -156.4179,1.5629 l -2.1924,-7.0386 -0.5025,-263 -0.5025,-263 -58.7299,-0.258 -58.73,-0.258 -0.272,262.258 -0.272,262.258 -2.1671,7.5934 c -12.5352,43.9231 -54.7278,69.3932 -97.5216,58.8702 z M 1733,862.85261 C 1531.2574,841.9275 1443.7137,593.24592 1587.4798,449.47981 1716.4476,320.51204 1936.0855,374.49887 1990.9199,548.64507 2043.2572,714.86086 1906.9654,880.89661 1733,862.85261 Z"
           id="path530" />
      </g>
    </g>
  </g>
</svg>
